<?xml version="1.0" encoding="UTF-8" standalone="no"?>
<svg
   id="Layer_1"
   data-name="Layer 1"
   viewBox="0 0 24 24"
   version="1.1"
   sodipodi:docname="practice.svg"
   inkscape:version="1.4 (86a8ad7, 2024-10-11)"
   xmlns:inkscape="http://www.inkscape.org/namespaces/inkscape"
   xmlns:sodipodi="http://sodipodi.sourceforge.net/DTD/sodipodi-0.dtd"
   xmlns="http://www.w3.org/2000/svg"
   xmlns:svg="http://www.w3.org/2000/svg">
  <defs
     id="defs1" />
  <sodipodi:namedview
     id="namedview1"
     pagecolor="#ffffff"
     bordercolor="#000000"
     borderopacity="0.25"
     inkscape:showpageshadow="2"
     inkscape:pageopacity="0.0"
     inkscape:pagecheckerboard="0"
     inkscape:deskcolor="#d1d1d1"
     inkscape:zoom="23.041667"
     inkscape:cx="12"
     inkscape:cy="12"
     inkscape:window-width="1366"
     inkscape:window-height="745"
     inkscape:window-x="1016"
     inkscape:window-y="-8"
     inkscape:window-maximized="1"
     inkscape:current-layer="Layer_1" />
  <path
     d="m14.5,12.5c0,1.381-1.119,2.5-2.5,2.5s-2.5-1.119-2.5-2.5,1.119-2.5,2.5-2.5,2.5,1.119,2.5,2.5Zm7.181-1.073l-2.604,3.721c-.374.534-.986.853-1.638.853H6.562c-.652,0-1.265-.318-1.638-.853l-2.604-3.721c-.316-.452-.94-.562-1.393-.246-.453.316-.562.94-.246,1.393l2.604,3.721c.748,1.068,1.973,1.706,3.277,1.706h1.438v5c0,.553.448,1,1,1h6c.552,0,1-.447,1-1v-5h1.438c1.304,0,2.529-.638,3.277-1.706l2.604-3.721c.316-.452.207-1.076-.246-1.393-.452-.315-1.075-.206-1.393.246Zm-12.681-6.427h2v.949c0,.516.623.774.988.409l1.767-1.767c.327-.327.327-.856,0-1.183l-1.767-1.767c-.365-.365-.988-.106-.988.409v.949h-2c-.552,0-1,.447-1,1s.448,1,1,1Zm14.377,1.783c-.186.317-.52.493-.863.493-.172,0-.347-.044-.506-.138l-.137-.081c-.387.359-.854.623-1.372.779v.163c0,.553-.448,1-1,1s-1-.447-1-1v-.163c-.517-.156-.985-.42-1.372-.779l-.137.081c-.159.094-.333.138-.506.138-.343,0-.677-.176-.863-.493-.28-.476-.121-1.089.355-1.369l.134-.079c-.066-.269-.112-.546-.112-.835s.045-.566.112-.835l-.134-.079c-.476-.28-.635-.894-.355-1.369.28-.478.893-.636,1.369-.355l.137.081c.387-.359.854-.623,1.372-.779v-.163c0-.553.448-1,1-1s1,.447,1,1v.163c.517.156.985.42,1.372.779l.137-.081c.476-.279,1.089-.122,1.369.355.28.476.121,1.089-.355,1.369l-.134.079c.066.269.112.546.112.835s-.045.566-.112.835l.134.079c.476.28.635.894.355,1.369Zm-2.377-2.283c0-.827-.673-1.5-1.5-1.5s-1.5.673-1.5,1.5.673,1.5,1.5,1.5,1.5-.673,1.5-1.5ZM2.971,9h1c.552,0,1-.448,1-1v-1H1.971v1c0,.552.448,1,1,1Zm-1.5-3h4c1-.5,1.5-1.541,1.5-2.5,0-1.073-.482-2.072-1.323-2.742C4.807.09,3.715-.153,2.648.094,1.373.389.358,1.404.064,2.68c-.284,1.232.407,2.82,1.407,3.32Z"
     id="path1"
     style="fill:#87deaa" />
</svg>
